<?xml version="1.0" encoding="UTF-8" standalone="no"?>
<!-- Created using Karbon14, part of koffice: http://www.koffice.org/karbon -->
<svg
   xmlns:dc="http://purl.org/dc/elements/1.1/"
   xmlns:cc="http://web.resource.org/cc/"
   xmlns:rdf="http://www.w3.org/1999/02/22-rdf-syntax-ns#"
   xmlns:svg="http://www.w3.org/2000/svg"
   xmlns="http://www.w3.org/2000/svg"
   xmlns:sodipodi="http://inkscape.sourceforge.net/DTD/sodipodi-0.dtd"
   xmlns:inkscape="http://www.inkscape.org/namespaces/inkscape"
   width="32"
   height="32"
   id="svg2"
   sodipodi:version="0.32"
   inkscape:version="0.43"
   sodipodi:docname="black_pawn.svg"
   sodipodi:docbase="/home/krawek/Proyectos/khess"
   version="1.0">
  <metadata
     id="metadata9">
    <rdf:RDF>
      <cc:Work
         rdf:about="">
        <dc:format>image/svg+xml</dc:format>
        <dc:type
           rdf:resource="http://purl.org/dc/dcmitype/StillImage" />
      </cc:Work>
    </rdf:RDF>
  </metadata>
  <sodipodi:namedview
     inkscape:window-height="538"
     inkscape:window-width="726"
     inkscape:pageshadow="2"
     inkscape:pageopacity="0.0"
     borderopacity="1.0"
     bordercolor="#666666"
     pagecolor="#ffffff"
     id="base"
     inkscape:zoom="3.5539043"
     inkscape:cx="49.082547"
     inkscape:cy="-5.1419983"
     inkscape:window-x="97"
     inkscape:window-y="56"
     inkscape:current-layer="svg2" />
  <defs
     id="defs4" />
  <g
     id="Layer"
     transform="matrix(0.538418,0,0,0.39488,-128.1339,-54.90476)">
    <path
       id="path1722"
       d="M 240.083,217.212 C 239.997,216.179 239.954,214.156 239.954,211.144 C 239.954,200.3 243.311,192.252 250.024,187.002 C 252.003,185.367 254.413,183.861 257.253,182.484 C 253.897,181.451 251.616,178.912 250.411,174.867 C 250.067,173.576 249.895,172.242 249.895,170.865 C 249.895,165.098 252.864,161.01 258.803,158.6 C 257.253,156.018 256.479,153.565 256.479,151.242 C 256.479,147.369 258.372,144.485 262.159,142.592 C 263.88,141.731 265.731,141.301 267.71,141.301 C 272.014,141.301 275.198,142.979 277.264,146.336 C 278.21,147.799 278.684,149.434 278.684,151.242 C 278.684,153.738 277.952,156.19 276.489,158.6 C 279.674,159.891 281.954,161.613 283.332,163.764 C 284.709,166.088 285.397,168.455 285.397,170.865 C 285.397,175.34 283.848,178.74 280.75,181.064 C 279.975,181.752 279.114,182.226 278.168,182.484 C 286.086,186.529 291.207,191.822 293.53,198.363 C 294.735,201.978 295.338,206.238 295.338,211.144 C 295.338,214.156 295.295,216.179 295.209,217.212 L 240.083,217.212"
       style="fill:#000000;stroke-width:1.25" />
  </g>
</svg>
