<?xml version="1.0" encoding="UTF-8" standalone="no"?>
<!-- Created using Karbon14, part of koffice: http://www.koffice.org/karbon -->
<svg
   xmlns:dc="http://purl.org/dc/elements/1.1/"
   xmlns:cc="http://web.resource.org/cc/"
   xmlns:rdf="http://www.w3.org/1999/02/22-rdf-syntax-ns#"
   xmlns:svg="http://www.w3.org/2000/svg"
   xmlns="http://www.w3.org/2000/svg"
   xmlns:sodipodi="http://inkscape.sourceforge.net/DTD/sodipodi-0.dtd"
   xmlns:inkscape="http://www.inkscape.org/namespaces/inkscape"
   width="32"
   height="32"
   id="svg1334"
   sodipodi:version="0.32"
   inkscape:version="0.43"
   sodipodi:docname="black_bishop.svg"
   sodipodi:docbase="/home/krawek/Proyectos/khess"
   version="1.0">
  <metadata
     id="metadata1341">
    <rdf:RDF>
      <cc:Work
         rdf:about="">
        <dc:format>image/svg+xml</dc:format>
        <dc:type
           rdf:resource="http://purl.org/dc/dcmitype/StillImage" />
      </cc:Work>
    </rdf:RDF>
  </metadata>
  <sodipodi:namedview
     inkscape:window-height="538"
     inkscape:window-width="726"
     inkscape:pageshadow="2"
     inkscape:pageopacity="0.0"
     borderopacity="1.0"
     bordercolor="#666666"
     pagecolor="#ffffff"
     id="base"
     inkscape:zoom="10.051959"
     inkscape:cx="30.101252"
     inkscape:cy="17.076825"
     inkscape:window-x="109"
     inkscape:window-y="94"
     inkscape:current-layer="svg1334" />
  <defs
     id="defs1336" />
  <g
     id="Layer"
     transform="matrix(0.366663,0,0,0.34048,-105.6557,-160.9505)">
    <path
       id="path1731"
       d="M 325.394,531.39 C 321.005,531.39 318.81,532.078 318.81,533.455 C 318.81,534.66 320.746,535.392 324.619,535.65 L 331.72,535.65 C 340.326,535.65 344.63,534.918 344.63,533.455 C 344.63,532.078 342.435,531.39 338.046,531.39 L 325.394,531.39 M 325.394,523.385 C 321.607,523.385 319.498,523.816 319.068,524.676 C 318.896,524.848 318.81,525.107 318.81,525.451 C 318.81,526.398 319.714,526.957 321.521,527.129 C 323.759,527.387 327.158,527.517 331.72,527.517 C 336.281,527.517 339.724,527.387 342.048,527.129 C 343.769,526.957 344.63,526.398 344.63,525.451 C 344.63,524.074 342.435,523.385 338.046,523.385 L 325.394,523.385 M 349.407,528.937 L 351.989,538.877 C 351.988,541.89 348.933,543.654 342.822,544.17 C 347.298,545.892 351.472,546.752 355.345,546.752 C 355.861,546.752 358.4,546.623 362.962,546.365 C 366.749,546.365 369.847,548.345 372.257,552.304 C 372.601,552.992 373.032,553.767 373.548,554.628 L 368.901,561.728 C 367.524,563.449 366.06,564.568 364.511,565.085 C 364.167,563.277 361.413,562.158 356.249,561.728 L 353.15,561.47 C 342.564,560.609 335.421,558.328 331.72,554.628 C 328.363,558.156 323.242,560.179 316.357,560.695 C 314.808,560.867 312.785,561.126 310.289,561.47 C 304.006,561.986 300.349,562.89 299.316,564.181 C 299.144,564.439 299.015,564.74 298.929,565.085 C 296.691,564.138 294.582,561.986 292.603,558.63 C 291.828,557.253 290.924,555.919 289.892,554.628 C 292.215,550.324 294.711,547.742 297.379,546.882 C 298.326,546.537 299.359,546.365 300.478,546.365 C 300.478,546.365 303.017,546.494 308.095,546.752 C 312.054,546.752 316.228,545.892 320.617,544.17 C 314.507,543.654 311.451,541.89 311.451,538.877 C 311.451,538.619 312.14,536.424 313.517,532.293 C 313.947,530.916 314.162,529.969 314.162,529.453 C 308.912,523.084 306.287,517.447 306.287,512.541 C 306.287,506.861 309.084,501.697 314.679,497.049 C 319.67,492.832 323.285,490.594 325.523,490.336 C 323.63,488.012 322.683,485.602 322.683,483.106 C 322.683,479.061 324.705,476.565 328.751,475.618 C 329.697,475.36 330.687,475.231 331.72,475.231 C 336.023,475.231 338.82,476.823 340.111,480.008 L 340.757,482.719 L 340.757,483.106 C 340.757,485.516 339.81,487.926 337.917,490.336 C 339.552,490.766 342.005,492.1 345.275,494.338 C 353.193,499.846 357.153,505.914 357.153,512.541 C 357.153,517.533 354.57,522.998 349.407,528.937 M 334.044,516.93 L 334.044,510.992 L 338.562,510.992 L 338.562,506.086 L 334.044,506.086 L 334.044,500.535 L 329.396,500.535 L 329.396,506.086 L 324.878,506.086 L 324.878,510.992 L 329.396,510.992 L 329.396,516.93 L 334.044,516.93 M 331.72,480.524 C 329.998,480.524 328.923,481.299 328.492,482.848 L 328.363,483.623 C 328.363,485.258 329.224,486.291 330.945,486.721 C 331.203,486.807 331.462,486.85 331.72,486.85 C 333.871,486.85 334.947,485.774 334.947,483.623 C 334.947,481.557 333.871,480.524 331.72,480.524"
       style="fill:#000000;stroke-width:1.25" />
  </g>
</svg>
