<?xml version="1.0" encoding="UTF-8" standalone="no"?>
<!-- Created using Karbon14, part of koffice: http://www.koffice.org/karbon -->
<svg
   xmlns:dc="http://purl.org/dc/elements/1.1/"
   xmlns:cc="http://web.resource.org/cc/"
   xmlns:rdf="http://www.w3.org/1999/02/22-rdf-syntax-ns#"
   xmlns:svg="http://www.w3.org/2000/svg"
   xmlns="http://www.w3.org/2000/svg"
   xmlns:sodipodi="http://inkscape.sourceforge.net/DTD/sodipodi-0.dtd"
   xmlns:inkscape="http://www.inkscape.org/namespaces/inkscape"
   width="32"
   height="32"
   id="svg1472"
   sodipodi:version="0.32"
   inkscape:version="0.43"
   sodipodi:docname="black_queen.svg"
   sodipodi:docbase="/home/krawek/Proyectos/khess"
   version="1.0">
  <metadata
     id="metadata1479">
    <rdf:RDF>
      <cc:Work
         rdf:about="">
        <dc:format>image/svg+xml</dc:format>
        <dc:type
           rdf:resource="http://purl.org/dc/dcmitype/StillImage" />
      </cc:Work>
    </rdf:RDF>
  </metadata>
  <sodipodi:namedview
     inkscape:window-height="538"
     inkscape:window-width="726"
     inkscape:pageshadow="2"
     inkscape:pageopacity="0.0"
     borderopacity="1.0"
     bordercolor="#666666"
     pagecolor="#ffffff"
     id="base"
     inkscape:zoom="3.5539043"
     inkscape:cx="55.770769"
     inkscape:cy="-6.1931337"
     inkscape:window-x="290"
     inkscape:window-y="170"
     inkscape:current-layer="svg1472" />
  <defs
     id="defs1474" />
  <g
     id="Layer"
     transform="matrix(0.333596,0,0,0.362844,-79.17845,-198.5752)">
    <path
       id="path1742"
       d="M 264.428,619.785 C 264.428,621.162 265.418,621.851 267.397,621.851 L 276.305,621.205 C 276.305,621.205 278.887,621.076 284.051,620.818 L 285.988,620.818 L 301.092,621.593 L 304.191,621.851 C 306.17,621.851 307.16,621.162 307.16,619.785 C 307.16,617.289 301.393,615.912 289.861,615.654 L 285.858,615.654 C 276.133,615.654 269.635,616.386 266.364,617.849 C 265.073,618.365 264.428,619.011 264.428,619.785 M 248.29,565.821 C 246.655,565.821 245.622,566.639 245.192,568.274 C 245.106,568.533 245.063,568.791 245.063,569.049 C 245.063,570.684 245.881,571.717 247.516,572.147 C 247.774,572.233 248.032,572.276 248.29,572.276 C 250.356,572.276 251.389,571.201 251.389,569.049 C 251.389,566.897 250.356,565.821 248.29,565.821 M 265.202,557.688 C 262.965,557.688 261.846,558.764 261.846,560.916 C 261.846,563.067 262.965,564.143 265.202,564.143 C 267.268,564.143 268.301,563.067 268.301,560.916 C 268.301,558.764 267.268,557.688 265.202,557.688 M 306.385,557.688 C 304.922,557.688 303.932,558.42 303.416,559.883 L 303.287,560.916 C 303.287,563.067 304.32,564.143 306.385,564.143 C 308.537,564.143 309.613,563.067 309.613,560.916 C 309.613,558.764 308.537,557.688 306.385,557.688 M 323.168,565.821 C 321.103,565.821 320.07,566.897 320.07,569.049 C 320.07,571.201 321.103,572.276 323.168,572.276 C 325.32,572.276 326.396,571.201 326.396,569.049 C 326.396,567.414 325.578,566.381 323.943,565.951 C 323.685,565.864 323.426,565.821 323.168,565.821 M 313.873,627.531 C 313.873,629.941 309.441,631.619 300.576,632.566 L 288.053,633.341 L 285.729,633.341 C 275.229,633.341 267.225,632.437 261.717,630.63 C 259.049,629.855 257.715,628.822 257.715,627.531 C 257.715,625.035 258.403,622.195 259.78,619.011 C 260.727,617.117 261.2,615.783 261.2,615.009 C 261.2,613.373 259.221,610.189 255.262,605.455 C 253.11,602.959 251.862,601.238 251.518,600.291 C 251.518,599.775 251.26,598.613 250.743,596.805 L 249.065,590.35 C 247.946,586.133 247.215,581.658 246.87,576.924 C 242.911,575.289 240.932,572.664 240.932,569.049 C 240.932,565.951 242.352,563.756 245.192,562.465 C 246.139,562.035 247.172,561.819 248.29,561.819 C 251.131,561.819 253.239,563.11 254.616,565.692 C 255.219,566.811 255.52,567.93 255.52,569.049 L 254.874,573.955 C 254.874,577.828 257.629,582.561 263.137,588.156 C 263.567,584.627 263.782,580.926 263.782,577.053 C 263.782,571.287 262.75,567.629 260.684,566.08 C 260.512,565.908 260.34,565.778 260.168,565.692 C 258.618,564.746 257.844,563.067 257.844,560.657 C 257.844,557.473 259.307,555.278 262.233,554.073 C 263.18,553.643 264.17,553.428 265.202,553.428 C 268.215,553.428 270.366,554.805 271.657,557.559 C 272.174,558.506 272.432,559.539 272.432,560.657 L 271.528,566.209 C 271.528,571.029 273.895,578.387 278.629,588.285 C 280.436,580.195 281.34,573.998 281.34,569.694 C 281.34,566.08 280.694,562.766 279.403,559.754 C 278.887,558.635 278.629,557.774 278.629,557.172 C 278.629,553.987 280.049,551.793 282.889,550.588 C 283.836,550.157 284.826,549.942 285.858,549.942 C 288.871,549.942 290.979,551.362 292.184,554.202 C 292.615,555.149 292.83,556.139 292.83,557.172 C 292.83,557.344 292.098,559.625 290.635,564.014 C 290.291,565.133 290.119,567.026 290.119,569.694 C 290.119,573.998 291.022,580.195 292.83,588.285 C 297.477,578.473 299.801,571.115 299.801,566.209 L 299.027,560.787 L 299.027,560.657 C 299.027,557.473 300.49,555.278 303.416,554.073 C 304.363,553.643 305.352,553.428 306.385,553.428 C 309.398,553.428 311.549,554.805 312.84,557.559 C 313.357,558.506 313.615,559.539 313.615,560.657 C 313.615,563.067 312.84,564.789 311.291,565.821 C 308.881,567.371 307.676,571.158 307.676,577.182 C 307.676,580.969 307.891,584.627 308.322,588.156 C 313.83,582.561 316.584,577.828 316.584,573.955 L 315.939,569.049 C 315.939,566.037 317.316,563.885 320.07,562.594 C 321.017,562.078 322.049,561.819 323.168,561.819 C 326.267,561.819 328.461,563.196 329.752,565.951 L 330.527,568.403 L 330.527,569.049 C 330.527,572.492 328.547,575.117 324.588,576.924 C 324.072,582.863 322.609,590.135 320.199,598.742 C 320.027,599.43 319.941,599.947 319.941,600.291 C 319.941,600.894 319.295,601.883 318.004,603.26 L 316.455,605.197 C 312.324,609.931 310.258,613.201 310.258,615.009 C 310.258,615.525 311.291,618.193 313.357,623.013 C 313.701,624.734 313.873,626.24 313.873,627.531 M 285.858,553.686 C 284.223,553.686 283.19,554.504 282.76,556.139 C 282.674,556.397 282.631,556.655 282.631,556.914 C 282.631,558.549 283.448,559.582 285.084,560.012 C 285.342,560.098 285.6,560.141 285.858,560.141 C 287.924,560.141 288.957,559.065 288.957,556.914 C 288.957,555.364 288.225,554.332 286.762,553.815 C 286.504,553.729 286.203,553.686 285.858,553.686 M 309.096,604.035 C 309.096,601.281 301.35,599.904 285.858,599.904 C 270.28,599.904 262.491,601.324 262.491,604.164 C 262.491,605.369 263.61,605.972 265.848,605.972 C 268.43,605.972 271.657,605.756 275.53,605.326 L 283.922,605.068 L 285.988,605.068 C 288.397,605.068 292.959,605.283 299.672,605.713 L 305.998,605.972 C 308.064,605.972 309.096,605.326 309.096,604.035"
       style="fill:#000000;stroke-width:1.25" />
  </g>
</svg>
