<?xml version="1.0" encoding="UTF-8" standalone="no"?>
<!-- Created using Karbon14, part of koffice: http://www.koffice.org/karbon -->
<svg
   xmlns:dc="http://purl.org/dc/elements/1.1/"
   xmlns:cc="http://web.resource.org/cc/"
   xmlns:rdf="http://www.w3.org/1999/02/22-rdf-syntax-ns#"
   xmlns:svg="http://www.w3.org/2000/svg"
   xmlns="http://www.w3.org/2000/svg"
   xmlns:sodipodi="http://inkscape.sourceforge.net/DTD/sodipodi-0.dtd"
   xmlns:inkscape="http://www.inkscape.org/namespaces/inkscape"
   width="32"
   height="32"
   id="svg1370"
   sodipodi:version="0.32"
   inkscape:version="0.43"
   sodipodi:docname="black_king.svg"
   sodipodi:docbase="/home/krawek/Proyectos/khess"
   version="1.0">
  <metadata
     id="metadata1377">
    <rdf:RDF>
      <cc:Work
         rdf:about="">
        <dc:format>image/svg+xml</dc:format>
        <dc:type
           rdf:resource="http://purl.org/dc/dcmitype/StillImage" />
      </cc:Work>
    </rdf:RDF>
  </metadata>
  <sodipodi:namedview
     inkscape:window-height="538"
     inkscape:window-width="726"
     inkscape:pageshadow="2"
     inkscape:pageopacity="0.0"
     borderopacity="1.0"
     bordercolor="#666666"
     pagecolor="#ffffff"
     id="base"
     inkscape:zoom="5.0259796"
     inkscape:cx="57.973932"
     inkscape:cy="3.729827"
     inkscape:window-x="212"
     inkscape:window-y="170"
     inkscape:current-layer="svg1370" />
  <defs
     id="defs1372" />
  <g
     id="Layer"
     transform="matrix(0.381724,0,0,0.357247,-29.18248,-195.2593)">
    <path
       id="text1061"
       d="M 121.542,600.937 C 121.542,602.486 120.467,603.26 118.315,603.26 C 115.905,603.26 114.7,602.486 114.7,600.937 C 114.7,593.793 112.333,587.984 107.6,583.508 C 103.382,579.721 99.2943,577.828 95.3352,577.828 C 89.4827,577.828 85.8248,580.152 84.3617,584.799 L 83.8453,588.285 L 83.8453,588.543 C 83.8453,591.986 86.3843,596.762 91.4622,602.873 C 92.8393,604.422 94.0012,605.627 94.9479,606.488 C 96.325,607.607 98.6057,608.166 101.79,608.166 C 105.147,608.166 110.569,607.521 118.057,606.23 C 125.631,607.521 131.096,608.166 134.452,608.166 C 137.723,608.166 140.004,607.607 141.295,606.488 C 144.91,603.303 147.922,599.43 150.332,594.869 C 151.709,592.287 152.397,590.178 152.397,588.543 C 152.397,583.121 149.944,579.721 145.039,578.344 C 143.748,578 142.371,577.828 140.907,577.828 C 136.948,577.828 132.903,579.764 128.772,583.637 C 123.952,587.941 121.542,593.707 121.542,600.937 M 149.557,588.543 C 149.557,591.986 147.19,596.031 142.457,600.678 L 139.1,603.519 L 137.809,604.293 C 136.174,604.551 134.452,604.681 132.645,604.681 C 127.309,604.681 124.641,603.605 124.641,601.453 C 124.813,594.826 126.793,589.662 130.579,585.961 C 133.85,582.691 137.207,581.055 140.649,581.055 C 145.039,581.055 147.836,582.647 149.041,585.832 L 149.557,588.543 M 137.293,621.334 C 137.293,619.097 130.967,617.978 118.315,617.978 C 114.872,617.978 111.817,618.107 109.149,618.365 L 106.05,618.623 C 101.403,619.226 99.0791,620.086 99.0791,621.205 C 99.0791,622.496 100.241,623.142 102.565,623.142 L 118.186,621.851 L 133.678,623.142 C 136.088,623.142 137.293,622.539 137.293,621.334 M 144.522,624.433 C 144.35,630.285 135.571,633.212 118.186,633.212 C 100.973,633.212 92.2368,630.285 91.9786,624.433 C 91.8925,618.925 91.0749,614.019 89.5257,609.715 C 88.579,607.392 86.7716,604.422 84.1035,600.808 C 80.7469,596.246 79.0686,592.201 79.0686,588.672 C 79.0686,583.164 81.4354,578.904 86.1691,575.891 C 88.8372,574.17 91.8065,573.309 95.077,573.309 C 99.5525,573.309 103.813,574.945 107.858,578.215 C 107.858,574.256 108.245,571.545 109.02,570.082 C 109.622,568.446 111.602,566.467 114.958,564.143 L 114.958,561.174 L 109.665,557.946 L 109.665,553.299 L 114.442,553.299 L 115.991,548.522 L 120.381,548.522 L 122.059,553.299 L 126.706,553.299 L 126.706,557.946 L 121.542,561.174 L 121.542,564.143 C 124.813,566.553 126.836,568.619 127.61,570.34 L 128.514,574.084 C 128.6,575.117 128.686,576.494 128.772,578.215 C 132.817,574.945 136.991,573.309 141.295,573.309 C 147.061,573.309 151.537,575.504 154.721,579.893 C 156.529,582.475 157.432,585.402 157.432,588.672 C 157.432,592.201 155.754,596.289 152.397,600.937 L 149.428,605.068 C 146.244,609.888 144.608,616.343 144.522,624.433 M 86.8146,588.543 C 86.8146,584.928 88.622,582.604 92.2368,581.572 C 93.2696,581.227 94.3454,581.055 95.4643,581.055 C 99.0791,581.055 102.522,582.691 105.792,585.961 C 109.493,589.748 111.43,594.912 111.602,601.453 C 111.688,603.347 109.708,604.422 105.663,604.681 C 105.061,604.681 104.415,604.681 103.727,604.681 C 102.005,604.681 100.241,604.551 98.4336,604.293 C 95.5934,602.916 92.7532,600.205 89.913,596.16 C 87.8474,593.148 86.8146,590.609 86.8146,588.543"
       style="fill:#000000;stroke-width:1.25" />
  </g>
</svg>
