<?xml version="1.0" encoding="UTF-8" standalone="no"?>
<!-- Created using Karbon14, part of koffice: http://www.koffice.org/karbon -->
<svg
   xmlns:dc="http://purl.org/dc/elements/1.1/"
   xmlns:cc="http://web.resource.org/cc/"
   xmlns:rdf="http://www.w3.org/1999/02/22-rdf-syntax-ns#"
   xmlns:svg="http://www.w3.org/2000/svg"
   xmlns="http://www.w3.org/2000/svg"
   xmlns:sodipodi="http://inkscape.sourceforge.net/DTD/sodipodi-0.dtd"
   xmlns:inkscape="http://www.inkscape.org/namespaces/inkscape"
   width="32"
   height="32"
   id="svg1406"
   sodipodi:version="0.32"
   inkscape:version="0.43"
   sodipodi:docname="black_knight.svg"
   sodipodi:docbase="/home/krawek/Proyectos/khess"
   version="1.0">
  <metadata
     id="metadata1413">
    <rdf:RDF>
      <cc:Work
         rdf:about="">
        <dc:format>image/svg+xml</dc:format>
        <dc:type
           rdf:resource="http://purl.org/dc/dcmitype/StillImage" />
      </cc:Work>
    </rdf:RDF>
  </metadata>
  <sodipodi:namedview
     inkscape:window-height="538"
     inkscape:window-width="726"
     inkscape:pageshadow="2"
     inkscape:pageopacity="0.0"
     borderopacity="1.0"
     bordercolor="#666666"
     pagecolor="#ffffff"
     id="base"
     inkscape:zoom="3.5539043"
     inkscape:cx="44.897223"
     inkscape:cy="43.860833"
     inkscape:window-x="290"
     inkscape:window-y="25"
     inkscape:current-layer="svg1406" />
  <defs
     id="defs1408" />
  <g
     id="Layer"
     transform="matrix(0.390195,0,0,0.385729,-292.251,-213.4721)">
    <path
       id="path1726"
       d="M 768.736,587.252 C 770.888,587.252 773.169,586.004 775.579,583.508 C 776.87,582.217 777.515,581.098 777.515,580.152 C 777.515,579.033 776.482,578.473 774.417,578.473 C 772.007,578.473 769.984,579.549 768.349,581.701 C 767.488,582.734 767.058,583.809 767.058,584.928 C 767.058,586.477 767.618,587.252 768.736,587.252 M 766.542,558.979 C 766.714,558.979 767.144,558.936 767.833,558.85 C 771.706,558.85 775.837,560.141 780.226,562.723 C 780.743,563.067 781.001,563.239 781.001,563.239 C 783.497,559.194 785.39,557.172 786.681,557.172 C 789.435,558.721 791.243,560.399 792.103,562.207 C 792.534,563.067 793.179,564.875 794.04,567.629 C 794.729,567.457 795.417,567.371 796.106,567.371 C 803.335,567.371 810.221,571.803 816.762,580.668 C 824.594,590.91 828.51,604.853 828.51,622.496 C 828.51,626.455 828.338,630.027 827.993,633.212 L 773.513,633.212 C 773.685,627.445 775.794,621.98 779.839,616.816 C 780.269,616.127 780.872,615.353 781.646,614.492 C 784.831,610.447 786.767,607.349 787.456,605.197 C 787.8,604.078 788.058,602.916 788.231,601.711 C 782.55,603.949 778.29,607.263 775.45,611.652 C 774.159,613.804 772.739,616.041 771.189,618.365 C 770.759,619.054 770.113,619.398 769.253,619.398 C 767.101,619.398 766.025,618.064 766.025,615.396 C 765.165,616.515 764.175,617.074 763.056,617.074 C 763.056,617.074 762.195,616.859 760.474,616.429 C 756.773,615.482 754.148,613.847 752.599,611.523 C 752.083,610.748 751.523,609.715 750.921,608.424 C 751.523,604.724 754.492,597.365 759.829,586.348 C 763.702,578.43 766.111,572.75 767.058,569.307 C 767.144,568.533 767.187,567.414 767.187,565.951 C 767.187,564.746 766.972,562.422 766.542,558.979 M 758.796,604.293 C 756.73,604.293 755.353,605.197 754.665,607.004 C 754.492,607.435 754.406,607.865 754.406,608.295 C 754.406,608.64 754.535,609.07 754.794,609.586 C 757.031,609.586 758.408,608.64 758.925,606.746 C 759.011,606.488 759.054,606.187 759.054,605.842 C 759.054,605.67 758.968,605.154 758.796,604.293 M 822.184,624.175 L 822.184,619.398 C 822.184,605.369 818.612,593.879 811.468,584.928 C 805.272,577.182 799.634,573.309 794.556,573.309 C 794.556,573.309 794.04,573.223 793.007,573.051 C 792.835,573.137 792.706,573.223 792.62,573.309 C 791.501,573.309 790.942,573.783 790.942,574.729 C 790.942,575.074 791.2,575.504 791.716,576.02 C 796.364,576.451 801.442,579.764 806.95,585.961 C 813.921,594.051 817.407,605.756 817.407,621.076 C 817.407,621.076 817.407,621.334 817.407,621.851 C 817.407,625.638 818.225,627.531 819.86,627.531 C 821.237,627.531 822.012,626.412 822.184,624.175"
       style="fill:#000000;stroke-width:1.25" />
  </g>
</svg>
