<?xml version="1.0" encoding="UTF-8" standalone="no"?>
<!-- Created using Karbon14, part of koffice: http://www.koffice.org/karbon -->
<svg
   xmlns:dc="http://purl.org/dc/elements/1.1/"
   xmlns:cc="http://web.resource.org/cc/"
   xmlns:rdf="http://www.w3.org/1999/02/22-rdf-syntax-ns#"
   xmlns:svg="http://www.w3.org/2000/svg"
   xmlns="http://www.w3.org/2000/svg"
   xmlns:sodipodi="http://inkscape.sourceforge.net/DTD/sodipodi-0.dtd"
   xmlns:inkscape="http://www.inkscape.org/namespaces/inkscape"
   width="32"
   height="32"
   id="svg1508"
   sodipodi:version="0.32"
   inkscape:version="0.43"
   sodipodi:docname="black_rook.svg"
   sodipodi:docbase="/home/krawek/Proyectos/khess"
   version="1.0">
  <metadata
     id="metadata1515">
    <rdf:RDF>
      <cc:Work
         rdf:about="">
        <dc:format>image/svg+xml</dc:format>
        <dc:type
           rdf:resource="http://purl.org/dc/dcmitype/StillImage" />
      </cc:Work>
    </rdf:RDF>
  </metadata>
  <sodipodi:namedview
     inkscape:window-height="538"
     inkscape:window-width="726"
     inkscape:pageshadow="2"
     inkscape:pageopacity="0.0"
     borderopacity="1.0"
     bordercolor="#666666"
     pagecolor="#ffffff"
     id="base"
     inkscape:zoom="3.5539043"
     inkscape:cx="39.069638"
     inkscape:cy="4.0806159"
     inkscape:window-x="0"
     inkscape:window-y="25"
     inkscape:current-layer="svg1508" />
  <defs
     id="defs1510" />
  <g
     id="Layer"
     transform="matrix(0.47795,0,0,0.40932,-201.2662,-227.8473)">
    <path
       id="path1734"
       d="M 424.871,633.212 L 422.418,630.759 L 422.418,621.593 L 435.457,608.683 L 435.457,582.992 L 425.387,573.051 L 425.387,561.561 L 429.002,557.946 L 438.168,557.946 L 440.492,560.141 L 440.492,563.369 L 445.398,563.369 L 445.398,560.141 L 447.592,557.946 L 461.922,557.946 L 464.117,560.141 L 464.117,563.369 L 469.023,563.369 L 469.023,560.141 L 471.218,557.946 L 480.513,557.946 L 484.128,561.561 L 484.128,573.051 L 474.058,582.992 L 474.058,608.683 L 487.097,621.593 L 487.097,630.759 L 484.515,633.212 L 424.871,633.212 M 440.105,605.713 L 440.105,610.103 L 469.41,610.103 L 469.41,605.713 L 440.105,605.713 M 440.105,582.475 L 440.105,586.865 L 469.41,586.865 L 469.41,582.475 L 440.105,582.475"
       style="fill:#000000;stroke-width:1.25" />
  </g>
</svg>
