<?xml version="1.0" encoding="UTF-8" standalone="no"?>
<!-- Created using Karbon14, part of koffice: http://www.koffice.org/karbon -->
<svg
   xmlns:dc="http://purl.org/dc/elements/1.1/"
   xmlns:cc="http://web.resource.org/cc/"
   xmlns:rdf="http://www.w3.org/1999/02/22-rdf-syntax-ns#"
   xmlns:svg="http://www.w3.org/2000/svg"
   xmlns="http://www.w3.org/2000/svg"
   xmlns:sodipodi="http://inkscape.sourceforge.net/DTD/sodipodi-0.dtd"
   xmlns:inkscape="http://www.inkscape.org/namespaces/inkscape"
   width="32"
   height="32"
   id="svg1646"
   sodipodi:version="0.32"
   inkscape:version="0.43"
   sodipodi:docname="white_knight.svg"
   sodipodi:docbase="/home/krawek/Proyectos/khess"
   version="1.0">
  <metadata
     id="metadata1653">
    <rdf:RDF>
      <cc:Work
         rdf:about="">
        <dc:format>image/svg+xml</dc:format>
        <dc:type
           rdf:resource="http://purl.org/dc/dcmitype/StillImage" />
      </cc:Work>
    </rdf:RDF>
  </metadata>
  <sodipodi:namedview
     inkscape:window-height="538"
     inkscape:window-width="726"
     inkscape:pageshadow="2"
     inkscape:pageopacity="0.0"
     borderopacity="1.0"
     bordercolor="#666666"
     pagecolor="#ffffff"
     id="base"
     inkscape:zoom="11.6875"
     inkscape:cx="16"
     inkscape:cy="16"
     inkscape:window-x="177"
     inkscape:window-y="86"
     inkscape:current-layer="Layer" />
  <defs
     id="defs1648" />
  <g
     id="Layer"
     transform="matrix(0.386651,0,0,0.395182,-289.3164,-275.7322)">
    <path
       id="path1693"
       d="M 760.654,745.573 C 761.859,745.573 762.461,746.391 762.461,748.026 C 762.461,750.178 761.385,751.253 759.234,751.253 C 758.373,751.253 757.943,750.565 757.943,749.188 C 757.943,746.778 758.846,745.573 760.654,745.573 M 769.949,729.823 C 768.744,729.823 768.142,729.091 768.142,727.628 C 768.142,725.304 769.519,723.411 772.273,721.948 C 773.478,721.345 774.597,721.044 775.629,721.044 C 777.437,721.044 778.427,721.647 778.599,722.851 C 778.599,724.831 777.05,726.724 773.951,728.532 C 772.402,729.393 771.068,729.823 769.949,729.823 M 770.982,705.552 C 771.326,706.757 771.498,707.575 771.498,708.005 C 771.498,708.263 771.369,708.952 771.111,710.071 C 772.488,710.071 774.382,709.382 776.791,708.005 C 774.468,706.8 772.531,705.982 770.982,705.552 M 755.619,749.962 C 756.135,752.028 757.512,753.534 759.75,754.481 C 760.611,754.825 761.428,754.997 762.203,754.997 L 762.461,754.997 C 762.633,754.997 763.58,754.481 765.302,753.448 C 765.818,753.104 766.248,752.932 766.592,752.932 L 767.109,752.932 C 767.539,752.932 767.754,753.19 767.754,753.706 L 766.98,756.159 C 766.98,756.934 767.582,757.321 768.787,757.321 C 768.959,757.321 770.035,755.815 772.015,752.803 C 775.802,746.95 781.181,742.518 788.152,739.505 C 788.841,734.858 790.562,730.77 793.316,727.241 C 794.005,726.294 794.693,725.821 795.382,725.821 C 796.156,725.821 796.544,726.38 796.544,727.499 C 796.544,727.757 795.769,730.21 794.22,734.858 C 793.617,736.837 793.316,738.3 793.316,739.247 C 793.316,739.505 793.402,740.065 793.574,740.925 C 793.574,747.036 790.992,753.448 785.828,760.161 C 782.386,764.809 780.492,768.51 780.148,771.264 L 822.751,771.264 C 823.095,767.305 823.267,764.379 823.267,762.485 C 823.267,744.755 817.716,730.597 806.613,720.011 C 803.257,716.913 800.546,715.364 798.48,715.364 L 790.734,715.364 C 790.046,715.019 789.357,713.298 788.669,710.2 C 788.152,707.704 787.507,706.155 786.732,705.552 C 785.699,708.65 782.515,711.06 777.179,712.782 C 774.338,713.642 772.359,714.503 771.24,715.364 C 770.293,718.376 767.496,724.487 762.849,733.696 C 758.287,742.819 755.877,748.241 755.619,749.962 M 827.915,776.041 L 773.822,776.041 C 774.166,770.102 776.404,764.422 780.535,759 C 783.72,754.696 785.613,752.071 786.216,751.124 C 787.421,749.231 788.152,746.95 788.41,744.282 C 782.816,746.692 778.47,750.135 775.371,754.61 L 773.564,757.579 C 772.273,759.645 771.455,760.807 771.111,761.065 C 770.595,761.495 770.035,761.71 769.433,761.71 C 766.765,761.71 764.957,760.807 764.011,759 C 763.838,758.741 763.752,758.44 763.752,758.096 C 762.892,758.526 762.031,758.741 761.17,758.741 C 757.039,758.741 753.769,756.159 751.359,750.995 C 752.047,747.208 755.662,738.473 762.203,724.788 C 762.892,723.497 763.408,722.464 763.752,721.69 C 766.334,715.923 767.625,711.577 767.625,708.65 C 767.625,708.22 767.367,705.81 766.851,701.421 L 767.884,701.421 C 772.531,701.421 776.964,702.884 781.181,705.81 C 783.505,701.765 785.441,699.743 786.99,699.743 C 789.744,701.206 791.638,703.271 792.671,705.939 L 794.091,710.2 C 794.951,710.028 795.683,709.941 796.285,709.941 C 803.171,709.941 809.97,714.331 816.683,723.11 C 824.515,733.352 828.431,747.38 828.431,765.196 C 828.431,769.241 828.259,772.856 827.915,776.041"
       style="fill:#000000;stroke-width:1.25" />
  </g>
</svg>
