<?xml version="1.0" encoding="UTF-8" standalone="no"?>
<!-- Created using Karbon14, part of koffice: http://www.koffice.org/karbon -->
<svg
   xmlns:dc="http://purl.org/dc/elements/1.1/"
   xmlns:cc="http://web.resource.org/cc/"
   xmlns:rdf="http://www.w3.org/1999/02/22-rdf-syntax-ns#"
   xmlns:svg="http://www.w3.org/2000/svg"
   xmlns="http://www.w3.org/2000/svg"
   xmlns:sodipodi="http://inkscape.sourceforge.net/DTD/sodipodi-0.dtd"
   xmlns:inkscape="http://www.inkscape.org/namespaces/inkscape"
   width="32"
   height="32"
   id="svg1748"
   sodipodi:version="0.32"
   inkscape:version="0.43"
   sodipodi:docname="white_queen.svg"
   sodipodi:docbase="/home/krawek/Proyectos/khess"
   version="1.0">
  <metadata
     id="metadata1755">
    <rdf:RDF>
      <cc:Work
         rdf:about="">
        <dc:format>image/svg+xml</dc:format>
        <dc:type
           rdf:resource="http://purl.org/dc/dcmitype/StillImage" />
      </cc:Work>
    </rdf:RDF>
  </metadata>
  <sodipodi:namedview
     inkscape:window-height="538"
     inkscape:window-width="726"
     inkscape:pageshadow="2"
     inkscape:pageopacity="0.0"
     borderopacity="1.0"
     bordercolor="#666666"
     pagecolor="#ffffff"
     id="base"
     inkscape:zoom="7.1078086"
     inkscape:cx="29.491498"
     inkscape:cy="20.287507"
     inkscape:window-x="290"
     inkscape:window-y="170"
     inkscape:current-layer="svg1748" />
  <defs
     id="defs1750" />
  <g
     id="Layer"
     transform="matrix(0.337954,0,0,0.365705,-81.24916,-252.4351)">
    <path
       id="path1715"
       d="M 284.618,746.993 L 290.299,746.993 C 291.59,746.993 293.139,747.036 294.946,747.122 L 307.727,747.897 L 307.856,747.897 C 309.405,747.897 310.18,747.682 310.18,747.251 L 310.18,746.735 C 310.18,744.153 304.457,742.475 293.01,741.7 C 290.944,741.528 289.137,741.442 287.588,741.442 C 279.153,741.442 272.655,742.303 268.093,744.024 C 266.028,744.798 264.995,745.702 264.995,746.735 L 264.995,747.251 C 264.995,747.682 265.77,747.897 267.319,747.897 L 284.618,746.993 M 308.502,752.803 C 301.702,751.942 294.731,751.512 287.588,751.512 C 280.1,751.512 273.128,751.942 266.673,752.803 C 267.706,753.663 268.223,755.342 268.223,757.838 C 268.223,759.473 267.964,760.463 267.448,760.807 C 272.612,759.86 279.325,759.387 287.588,759.387 C 295.85,759.387 302.563,759.86 307.727,760.807 C 307.211,760.463 306.952,759.473 306.953,757.838 C 306.952,755.342 307.469,753.663 308.502,752.803 M 287.588,763.905 C 283.198,763.905 278.292,764.12 272.87,764.551 C 268.653,764.895 266.544,765.885 266.544,767.52 C 266.544,769.672 273.559,770.747 287.588,770.747 C 301.616,770.747 308.631,769.672 308.631,767.52 C 308.631,766.832 308.071,766.186 306.953,765.583 C 303.682,764.465 297.227,763.905 287.588,763.905 M 287.588,696.386 C 285.436,696.386 284.36,697.419 284.36,699.484 C 284.36,701.722 285.436,702.841 287.588,702.841 C 289.653,702.841 290.686,701.722 290.686,699.484 C 290.686,697.419 289.653,696.386 287.588,696.386 M 287.588,692.642 C 290.686,692.642 292.837,694.062 294.043,696.902 L 294.688,699.484 L 294.688,699.872 C 294.688,700.388 294.344,701.464 293.655,703.099 C 292.45,706.628 291.848,709.683 291.848,712.265 C 291.848,716.483 292.794,722.722 294.688,730.985 C 299.336,721.173 301.659,713.771 301.659,708.78 L 300.885,703.228 C 300.885,700.216 302.219,698.064 304.887,696.773 C 305.834,696.257 306.866,695.999 307.985,695.999 C 311.084,695.999 313.278,697.376 314.569,700.13 C 315.086,701.163 315.344,702.195 315.344,703.228 C 315.344,705.466 314.569,707.23 313.02,708.521 C 310.696,710.845 309.491,714.632 309.405,719.882 C 309.405,722.12 309.62,725.735 310.051,730.727 C 315.645,724.96 318.442,720.269 318.442,716.655 L 317.797,711.62 C 317.797,708.78 319.088,706.671 321.67,705.294 C 322.703,704.691 323.778,704.39 324.897,704.39 C 327.824,704.39 330.018,705.724 331.481,708.392 L 332.256,710.845 L 332.256,711.62 C 332.256,715.149 330.276,717.817 326.318,719.624 C 326.145,723.325 324.725,730.597 322.057,741.442 C 321.885,741.958 321.756,742.432 321.67,742.862 C 321.67,744.067 320.293,746.132 317.539,749.059 C 313.838,752.76 311.987,755.643 311.987,757.708 C 311.987,758.655 313.02,761.194 315.086,765.325 C 315.43,766.1 315.602,767.262 315.602,768.811 L 315.602,769.715 C 315.516,769.973 315.473,770.274 315.473,770.618 L 315.473,770.747 L 315.602,770.877 C 315.602,773.975 307.297,775.696 290.686,776.041 C 289.567,776.041 288.491,776.041 287.458,776.041 L 282.036,775.911 L 281.907,775.911 C 273.817,775.653 267.663,774.965 263.446,773.846 C 260.778,773.071 259.444,772.082 259.444,770.877 C 259.53,770.791 259.53,770.274 259.444,769.327 C 259.358,769.155 259.358,768.983 259.444,768.811 C 259.444,766.832 260.089,764.551 261.38,761.969 C 262.413,759.903 262.929,758.483 262.929,757.708 C 262.929,756.331 262.198,754.696 260.735,752.803 L 254.409,745.573 C 253.72,744.626 253.376,743.723 253.376,742.862 C 250.708,731.932 249.202,724.831 248.858,721.56 C 248.772,720.872 248.728,720.226 248.728,719.624 C 244.769,717.817 242.79,715.149 242.79,711.62 C 242.79,708.78 244.081,706.671 246.663,705.294 C 247.782,704.691 248.901,704.39 250.019,704.39 C 253.032,704.39 255.183,705.767 256.474,708.521 C 256.991,709.468 257.249,710.501 257.249,711.62 L 256.604,716.655 C 256.604,720.442 259.358,725.132 264.866,730.727 C 265.296,726.94 265.511,723.325 265.511,719.882 C 265.511,715.149 264.952,712.007 263.833,710.458 C 263.403,709.855 262.757,709.167 261.897,708.392 C 260.347,707.359 259.573,705.638 259.573,703.228 C 259.573,700.216 260.993,698.021 263.833,696.644 C 264.78,696.214 265.813,695.999 266.932,695.999 C 269.944,695.999 272.096,697.376 273.387,700.13 C 273.903,701.077 274.161,702.109 274.161,703.228 L 273.387,708.65 L 273.387,708.78 C 273.387,713.685 275.71,721.087 280.358,730.985 C 282.165,723.153 283.069,716.913 283.069,712.265 C 283.069,708.823 282.423,705.552 281.133,702.454 C 280.616,701.249 280.358,700.388 280.358,699.872 C 280.358,696.859 281.735,694.708 284.489,693.417 C 285.436,692.9 286.469,692.642 287.588,692.642 M 324.897,708.521 C 323.52,708.521 322.53,709.21 321.928,710.587 C 321.842,710.931 321.799,711.276 321.799,711.62 C 321.799,713.341 322.574,714.417 324.123,714.847 C 324.381,714.933 324.639,714.976 324.897,714.976 C 327.049,714.976 328.125,713.858 328.125,711.62 C 328.125,709.554 327.049,708.521 324.897,708.521 M 307.985,700.259 C 306.522,700.259 305.532,700.991 305.016,702.454 L 304.887,703.486 C 304.887,705.036 305.618,706.068 307.082,706.585 C 307.34,706.671 307.641,706.714 307.985,706.714 C 310.223,706.714 311.342,705.638 311.342,703.486 C 311.342,701.335 310.223,700.259 307.985,700.259 M 266.932,700.259 C 264.78,700.259 263.704,701.335 263.704,703.486 C 263.704,705.638 264.78,706.714 266.932,706.714 C 268.997,706.714 270.03,705.638 270.03,703.486 C 270.03,701.335 268.997,700.259 266.932,700.259 M 250.019,708.521 C 247.868,708.521 246.792,709.554 246.792,711.62 C 246.792,713.858 247.868,714.976 250.019,714.976 C 252.085,714.976 253.118,713.858 253.118,711.62 C 253.118,710.157 252.386,709.167 250.923,708.65 C 250.665,708.564 250.364,708.521 250.019,708.521 M 287.588,716.784 C 286.382,724.358 284.833,729.823 282.94,733.179 L 281.003,736.278 L 281.003,736.407 C 280.745,736.149 279.626,734.858 277.647,732.534 C 275.151,729.608 272.526,724.056 269.772,715.88 C 269.944,717.085 270.03,718.333 270.03,719.624 C 270.03,723.669 269.298,729.909 267.835,738.343 C 263.188,735.589 258.669,731.2 254.28,725.175 C 255.743,732.577 256.862,737.44 257.636,739.764 C 258.153,741.485 258.798,742.475 259.573,742.733 C 266.63,738.688 275.968,736.665 287.588,736.665 C 299.292,736.665 308.631,738.688 315.602,742.733 C 317.151,742.216 318.873,736.364 320.766,725.175 C 316.291,731.372 311.815,735.761 307.34,738.343 C 305.877,730.856 305.145,724.96 305.145,720.657 C 305.145,719.538 305.231,717.946 305.403,715.88 C 303.682,721.044 301.702,725.649 299.465,729.694 C 298.26,731.501 296.926,733.223 295.463,734.858 C 294.774,735.546 294.344,736.063 294.172,736.407 L 291.331,731.372 C 291.245,731.028 291.116,730.684 290.944,730.339 C 290.256,728.446 289.137,723.927 287.588,716.784"
       style="fill:#000000;stroke-width:1.25" />
  </g>
</svg>
