<?xml version="1.0" encoding="UTF-8" standalone="no"?>
<!-- Created using Karbon14, part of koffice: http://www.koffice.org/karbon -->
<svg
   xmlns:dc="http://purl.org/dc/elements/1.1/"
   xmlns:cc="http://web.resource.org/cc/"
   xmlns:rdf="http://www.w3.org/1999/02/22-rdf-syntax-ns#"
   xmlns:svg="http://www.w3.org/2000/svg"
   xmlns="http://www.w3.org/2000/svg"
   xmlns:sodipodi="http://inkscape.sourceforge.net/DTD/sodipodi-0.dtd"
   xmlns:inkscape="http://www.inkscape.org/namespaces/inkscape"
   width="32"
   height="32"
   id="svg2"
   sodipodi:version="0.32"
   inkscape:version="0.43"
   sodipodi:docname="white_pawn.svg"
   sodipodi:docbase="/home/krawek/Proyectos/khess"
   version="1.0">
  <metadata
     id="metadata9">
    <rdf:RDF>
      <cc:Work
         rdf:about="">
        <dc:format>image/svg+xml</dc:format>
        <dc:type
           rdf:resource="http://purl.org/dc/dcmitype/StillImage" />
      </cc:Work>
    </rdf:RDF>
  </metadata>
  <sodipodi:namedview
     inkscape:window-height="538"
     inkscape:window-width="726"
     inkscape:pageshadow="2"
     inkscape:pageopacity="0.0"
     borderopacity="1.0"
     bordercolor="#666666"
     pagecolor="#ffffff"
     id="base"
     inkscape:zoom="3.5751319"
     inkscape:cx="6.7159901"
     inkscape:cy="-0.46492227"
     inkscape:window-x="0"
     inkscape:window-y="25"
     inkscape:current-layer="svg2" />
  <defs
     id="defs4" />
  <g
     id="Layer"
     transform="matrix(0.518928,0,0,0.391628,-122.8082,-34.56503)">
    <path
       id="path1688"
       d="M 290.161,161.877 C 290.161,152.84 287.708,146.083 282.802,141.608 C 281.167,140.059 279.145,138.596 276.735,137.219 C 273.378,135.239 271.7,133.432 271.7,131.796 C 271.7,130.936 272.56,129.989 274.282,128.956 C 276.95,127.493 278.542,125.772 279.059,123.792 C 279.231,123.018 279.317,122.071 279.317,120.952 C 279.317,116.993 277.294,113.895 273.249,111.657 L 270.925,109.978 C 270.495,109.548 270.28,109.075 270.28,108.558 C 270.28,107.095 270.796,105.632 271.829,104.169 C 272.517,103.222 272.862,102.103 272.862,100.812 C 272.862,98.575 271.657,96.939 269.247,95.907 C 268.472,95.648 267.698,95.519 266.923,95.519 C 264.513,95.519 262.792,96.595 261.759,98.747 C 261.415,99.435 261.243,100.124 261.243,100.812 C 261.243,101.587 261.802,103.05 262.921,105.202 C 263.609,106.407 263.911,107.526 263.825,108.558 C 263.825,109.591 262.835,110.624 260.855,111.657 C 256.896,113.981 254.917,117.079 254.917,120.952 C 254.917,124.309 256.595,126.977 259.952,128.956 C 261.587,130.075 262.405,131.022 262.405,131.796 C 262.405,133.432 260.726,135.239 257.37,137.219 C 251.173,141.005 247.214,145.61 245.493,151.032 C 244.546,154.045 244.072,157.659 244.072,161.877 L 290.161,161.877 M 239.554,167.041 C 239.468,166.008 239.425,164.028 239.425,161.102 C 239.425,150.516 242.523,142.598 248.72,137.348 C 250.786,135.626 253.411,133.948 256.595,132.313 C 253.325,131.28 251.13,128.784 250.011,124.825 C 249.581,123.534 249.366,122.2 249.366,120.823 C 249.366,115.056 252.292,110.925 258.144,108.429 C 256.767,105.933 256.079,103.48 256.079,101.071 C 256.079,97.112 258.015,94.185 261.888,92.292 C 263.523,91.517 265.288,91.13 267.181,91.13 C 271.571,91.13 274.798,92.808 276.864,96.165 C 277.81,97.628 278.284,99.263 278.284,101.071 C 278.284,103.394 277.509,105.847 275.96,108.429 C 281.899,110.839 284.868,114.97 284.868,120.823 C 284.868,125.384 283.19,128.827 279.833,131.151 C 279.145,131.667 278.37,132.055 277.509,132.313 C 285.255,136.272 290.29,141.307 292.614,147.417 C 294.077,151.204 294.809,155.766 294.809,161.102 C 294.809,163.942 294.766,165.922 294.68,167.041 L 239.554,167.041"
       style="fill:#000000;stroke-width:1.25" />
  </g>
</svg>
