<?xml version="1.0" encoding="UTF-8" standalone="no"?>
<!-- Created using Karbon14, part of koffice: http://www.koffice.org/karbon -->
<svg
   xmlns:dc="http://purl.org/dc/elements/1.1/"
   xmlns:cc="http://web.resource.org/cc/"
   xmlns:rdf="http://www.w3.org/1999/02/22-rdf-syntax-ns#"
   xmlns:svg="http://www.w3.org/2000/svg"
   xmlns="http://www.w3.org/2000/svg"
   xmlns:sodipodi="http://inkscape.sourceforge.net/DTD/sodipodi-0.dtd"
   xmlns:inkscape="http://www.inkscape.org/namespaces/inkscape"
   width="32"
   height="32"
   id="svg1610"
   sodipodi:version="0.32"
   inkscape:version="0.43"
   sodipodi:docname="white_king.svg"
   sodipodi:docbase="/home/krawek/Proyectos/khess"
   version="1.0">
  <metadata
     id="metadata1617">
    <rdf:RDF>
      <cc:Work
         rdf:about="">
        <dc:format>image/svg+xml</dc:format>
        <dc:type
           rdf:resource="http://purl.org/dc/dcmitype/StillImage" />
      </cc:Work>
    </rdf:RDF>
  </metadata>
  <sodipodi:namedview
     inkscape:window-height="538"
     inkscape:window-width="726"
     inkscape:pageshadow="2"
     inkscape:pageopacity="0.0"
     borderopacity="1.0"
     bordercolor="#666666"
     pagecolor="#ffffff"
     id="base"
     inkscape:zoom="3.5539043"
     inkscape:cx="46.995153"
     inkscape:cy="-6.6723154"
     inkscape:window-x="66"
     inkscape:window-y="125"
     inkscape:current-layer="svg1610" />
  <defs
     id="defs1612" />
  <g
     id="Layer"
     transform="matrix(0.381378,0,0,0.354085,-29.52595,-243.5578)">
    <path
       id="path1721"
       d="M 119.657,776.041 C 102.529,776.041 93.8368,773.157 93.5786,767.391 C 93.1482,759.473 91.8142,753.491 89.5765,749.446 C 88.6298,747.811 87.2957,745.831 85.5744,743.507 C 82.6481,739.634 81.0129,736.364 80.6686,733.696 C 80.5825,733.007 80.5395,732.276 80.5395,731.501 C 80.5395,726.079 82.8202,721.819 87.3818,718.72 C 88.5006,718.032 89.6625,717.472 90.8675,717.042 C 95.429,715.407 99.9475,715.665 104.423,717.817 C 106.058,718.591 107.694,719.624 109.329,720.915 L 109.458,721.044 C 109.458,719.237 109.544,717.3 109.716,715.235 C 109.716,714.632 110.017,713.814 110.62,712.782 C 111.997,710.544 113.632,708.78 115.526,707.489 C 115.87,707.316 116.214,707.101 116.558,706.843 L 116.558,703.745 L 111.265,700.646 L 111.265,695.999 L 116.042,695.999 L 117.72,691.093 L 121.593,691.093 L 123.272,695.999 L 128.048,695.999 L 128.048,700.646 L 122.755,703.745 L 122.755,706.843 C 127.231,709.683 129.511,712.523 129.597,715.364 C 129.77,717.085 129.856,718.978 129.856,721.044 L 129.985,720.915 C 135.407,716.353 141.087,714.89 147.026,716.526 C 148.575,716.956 150.038,717.601 151.415,718.462 C 156.235,721.388 158.688,725.735 158.774,731.501 C 158.774,734.944 157.053,739.032 153.61,743.766 C 150.77,747.725 149.005,750.608 148.317,752.415 C 146.854,756.288 145.993,761.28 145.735,767.391 C 145.563,773.157 136.87,776.041 119.657,776.041 M 119.657,732.534 L 123.401,726.595 C 124.003,725.304 124.476,724.099 124.821,722.981 C 124.993,722.378 125.079,721.13 125.079,719.237 C 125.079,714.159 123.315,711.62 119.786,711.62 C 116.085,711.62 114.235,714.159 114.235,719.237 C 114.235,721.13 114.321,722.378 114.493,722.981 C 115.181,725.304 116.644,728.059 118.882,731.243 C 119.399,731.845 119.657,732.276 119.657,732.534 M 154.126,732.276 C 154.126,728.403 152.835,725.433 150.253,723.368 C 148.102,721.56 145.563,720.657 142.637,720.657 C 138.936,720.657 134.934,722.55 130.63,726.337 C 125.552,730.727 122.669,736.665 121.981,744.153 C 121.981,744.755 123.573,745.444 126.757,746.219 C 130.458,746.907 136.741,747.251 145.606,747.251 L 151.415,739.505 C 153.223,736.751 154.126,734.341 154.126,732.276 M 119.657,749.704 C 117.505,750.651 110.964,751.469 100.034,752.157 C 98.3983,752.243 97.0643,752.329 96.0315,752.415 C 96.8921,755.686 97.4516,759.301 97.7098,763.26 C 103.648,761.366 110.964,760.419 119.657,760.419 C 128.522,760.419 135.837,761.366 141.604,763.26 C 141.862,758.956 142.421,755.342 143.282,752.415 L 124.175,750.866 C 122.54,750.608 121.034,750.221 119.657,749.704 M 85.1871,732.276 C 85.1871,734.944 87.2957,738.989 91.513,744.411 C 92.5458,745.702 93.2774,746.649 93.7077,747.251 L 96.0315,747.251 C 104.896,747.251 111.351,746.649 115.396,745.444 C 116.687,745.1 117.333,744.669 117.333,744.153 C 116.644,736.665 113.761,730.727 108.683,726.337 C 104.466,722.55 100.464,720.657 96.677,720.657 C 95.472,720.657 94.181,720.915 92.804,721.431 C 89.3613,722.292 87.0375,724.573 85.8326,728.274 L 85.1871,731.759 L 85.1871,732.276 M 119.657,771.393 C 127.747,771.393 133.341,770.877 136.44,769.844 C 137.214,769.586 137.602,769.284 137.602,768.94 C 137.602,766.702 131.663,765.583 119.786,765.583 C 115.224,765.583 110.792,765.885 106.489,766.487 C 103.304,767.004 101.712,767.821 101.712,768.94 C 101.712,770.231 106.79,771.049 116.946,771.393 C 117.978,771.393 118.882,771.393 119.657,771.393"
       style="fill:#000000;stroke-width:1.25" />
  </g>
</svg>
