<?xml version="1.0" encoding="UTF-8" standalone="no"?>
<!-- Created using Karbon14, part of koffice: http://www.koffice.org/karbon -->
<svg
   xmlns:dc="http://purl.org/dc/elements/1.1/"
   xmlns:cc="http://web.resource.org/cc/"
   xmlns:rdf="http://www.w3.org/1999/02/22-rdf-syntax-ns#"
   xmlns:svg="http://www.w3.org/2000/svg"
   xmlns="http://www.w3.org/2000/svg"
   xmlns:sodipodi="http://inkscape.sourceforge.net/DTD/sodipodi-0.dtd"
   xmlns:inkscape="http://www.inkscape.org/namespaces/inkscape"
   width="32"
   height="32"
   id="svg1544"
   sodipodi:version="0.32"
   inkscape:version="0.43"
   sodipodi:docname="white_bishop.svg"
   sodipodi:docbase="/home/krawek/Proyectos/khess"
   version="1.0">
  <metadata
     id="metadata1551">
    <rdf:RDF>
      <cc:Work
         rdf:about="">
        <dc:format>image/svg+xml</dc:format>
        <dc:type
           rdf:resource="http://purl.org/dc/dcmitype/StillImage" />
      </cc:Work>
    </rdf:RDF>
  </metadata>
  <sodipodi:namedview
     inkscape:window-height="538"
     inkscape:window-width="726"
     inkscape:pageshadow="2"
     inkscape:pageopacity="0.0"
     borderopacity="1.0"
     bordercolor="#666666"
     pagecolor="#ffffff"
     id="base"
     inkscape:zoom="0.88847607"
     inkscape:cx="48.126869"
     inkscape:cy="141.52376"
     inkscape:window-x="403"
     inkscape:window-y="25"
     inkscape:current-layer="svg1544" />
  <defs
     id="defs1546" />
  <g
     id="Layer"
     transform="matrix(0.3577,0,0,0.340671,-206.9176,-233.9846)">
    <path
       id="path1700"
       d="M 623.062,741.055 C 617.037,741.055 612.346,740.796 608.99,740.28 C 609.592,741.485 609.893,742.518 609.894,743.378 C 609.893,744.669 609.635,745.745 609.119,746.606 C 611.615,745.831 616.262,745.444 623.062,745.444 C 629.861,745.444 634.508,745.831 637.004,746.606 C 636.488,745.745 636.23,744.669 636.23,743.378 C 636.23,742.346 636.488,741.313 637.004,740.28 C 632.959,740.796 628.312,741.055 623.062,741.055 M 623.062,694.32 C 621.254,694.32 620.006,695.138 619.318,696.773 C 619.146,697.204 619.06,697.634 619.06,698.064 C 619.06,699.958 620.006,701.206 621.9,701.808 C 622.244,701.894 622.631,701.937 623.062,701.937 C 625.041,701.937 626.332,701.034 626.935,699.226 C 627.021,698.882 627.064,698.495 627.064,698.064 C 627.064,696.343 626.203,695.181 624.482,694.579 C 623.965,694.406 623.492,694.32 623.062,694.32 M 623.062,749.188 C 619.791,749.188 615.574,749.489 610.41,750.092 C 608.947,750.264 608.086,751.081 607.828,752.544 C 607.828,753.577 610.195,754.223 614.928,754.481 C 614.498,754.395 614.67,754.352 615.445,754.352 C 616.219,754.352 618.758,754.352 623.062,754.352 C 633.131,754.352 638.166,753.749 638.166,752.544 C 638.166,750.565 635.67,749.489 630.679,749.317 L 626.935,749.317 C 625.816,749.317 624.869,749.274 624.094,749.188 L 623.062,749.188 M 622.933,737.311 C 632.572,737.311 638.468,736.407 640.619,734.6 C 642.082,733.481 643.158,730.511 643.847,725.692 C 643.416,721.388 640.619,717.257 635.455,713.298 C 630.635,709.511 626.418,707.403 622.803,706.972 C 619.447,707.403 615.359,709.511 610.539,713.298 C 605.461,717.257 602.707,721.388 602.277,725.692 C 602.879,730.167 603.826,733.007 605.117,734.212 C 605.461,734.557 605.848,734.858 606.279,735.116 C 608.43,736.579 613.982,737.311 622.933,737.311 M 620.738,730.985 L 620.738,725.304 L 616.349,725.304 L 616.349,720.269 L 620.738,720.269 L 620.738,714.718 L 625.386,714.718 L 625.386,720.269 L 629.775,720.269 L 629.775,725.304 L 625.386,725.304 L 625.386,730.985 L 620.738,730.985 M 622.803,757.321 C 622.029,757.321 619.748,758.827 615.961,761.84 C 613.293,763.647 608.99,764.723 603.051,765.067 C 598.748,765.067 595.305,765.282 592.723,765.713 C 589.969,766.315 588.592,767.477 588.592,769.198 C 588.85,770.92 589.754,771.78 591.303,771.78 L 598.145,770.747 C 602.621,770.747 607.312,770.145 612.217,768.94 C 617.812,767.477 621.426,765.153 623.062,761.969 C 625.385,766.53 631.41,769.284 641.136,770.231 C 641.136,770.231 642.254,770.403 644.492,770.747 C 646.73,770.747 647.849,770.747 647.849,770.747 L 654.82,771.78 C 656.369,771.78 657.273,770.92 657.531,769.198 C 657.531,767.477 656.154,766.315 653.4,765.713 L 639.587,764.68 C 635.197,764.336 630.98,762.614 626.935,759.516 C 625.127,758.053 623.75,757.321 622.803,757.321 M 623.062,768.553 C 619.705,771.909 614.627,773.975 607.828,774.75 C 605.074,775.008 600.254,775.61 593.369,776.557 C 591.561,776.901 590.529,777.719 590.27,779.01 C 588.635,778.58 586.225,775.911 583.041,771.006 C 582.266,769.801 581.707,768.983 581.362,768.553 C 584.203,763.131 587.731,760.419 591.949,760.419 L 599.566,760.807 C 603.094,760.807 607.225,759.989 611.959,758.354 C 605.848,757.579 602.793,755.729 602.793,752.803 L 605.375,742.991 C 605.375,742.905 605.375,742.819 605.375,742.733 C 600.211,737.052 597.629,731.716 597.629,726.724 C 597.629,721.044 600.426,715.88 606.021,711.232 C 610.926,707.101 614.541,704.907 616.865,704.648 C 614.971,702.325 614.025,699.915 614.025,697.419 C 614.025,693.46 616.004,690.964 619.963,689.931 C 620.91,689.673 621.943,689.544 623.062,689.544 C 627.279,689.544 630.033,691.136 631.324,694.32 L 631.97,697.032 L 631.97,697.419 C 631.97,700.087 631.066,702.497 629.259,704.648 C 631.582,704.907 635.24,707.144 640.232,711.362 C 645.74,715.923 648.494,721.044 648.494,726.724 C 648.494,731.544 645.912,736.88 640.748,742.733 C 640.748,743.938 641.179,745.659 642.039,747.897 C 642.9,750.651 643.33,752.286 643.33,752.803 C 643.33,755.729 640.275,757.579 634.164,758.354 C 638.812,759.989 642.943,760.807 646.558,760.807 L 654.175,760.419 C 658.392,760.419 661.921,763.131 664.761,768.553 L 660.372,775.266 C 658.908,777.159 657.402,778.407 655.853,779.01 C 655.509,777.289 653.013,776.213 648.365,775.782 C 648.968,775.782 647.677,775.653 644.492,775.395 C 633.734,774.362 626.59,772.082 623.062,768.553"
       style="fill:#000000;stroke-width:1.25" />
  </g>
</svg>
