/* XPM */
static char *erase_xpm[] = {
/* columns rows colors chars-per-pixel */
"32 32 140 2",
"   c black",
".  c #010101",
"X  c #020202",
"o  c gray1",
"O  c #040404",
"+  c gray2",
"@  c #060606",
"#  c #070707",
"$  c gray3",
"%  c #090909",
"&  c gray4",
"*  c #0B0B0B",
"=  c #0C0C0C",
"-  c gray5",
";  c #0E0E0E",
":  c gray6",
">  c #101010",
",  c #111111",
"<  c gray7",
"1  c #131313",
"2  c gray8",
"3  c #151515",
"4  c #161616",
"5  c #181818",
"6  c #191919",
"7  c #1B1B1B",
"8  c gray11",
"9  c #1D1D1D",
"0  c #1E1E1E",
"q  c gray12",
"w  c #202020",
"e  c gray13",
"r  c #222222",
"t  c #232323",
"y  c gray15",
"u  c #282828",
"i  c #2A2A2A",
"p  c gray17",
"a  c #2D2D2D",
"s  c gray19",
"d  c #313131",
"f  c #323232",
"g  c gray20",
"h  c #353535",
"j  c gray21",
"k  c #373737",
"l  c #3A3A3A",
"z  c #3C3C3C",
"x  c #3E3E3E",
"c  c #3F3F3F",
"v  c #414141",
"b  c #434343",
"n  c #444444",
"m  c gray27",
"M  c #464646",
"N  c gray28",
"B  c #484848",
"V  c gray29",
"C  c gray30",
"Z  c #515151",
"A  c #565656",
"S  c gray35",
"D  c gray36",
"F  c gray37",
"G  c #606060",
"H  c gray39",
"J  c gray40",
"K  c DimGray",
"L  c #6D6D6D",
"P  c #727272",
"I  c #747474",
"U  c #767676",
"Y  c #777777",
"T  c gray47",
"R  c #797979",
"E  c gray48",
"W  c gray50",
"Q  c gray51",
"!  c #848484",
"~  c gray53",
"^  c gray54",
"/  c #8D8D8D",
"(  c #909090",
")  c gray57",
"_  c gray59",
"`  c #989898",
"'  c #9A9A9A",
"]  c gray61",
"[  c #9F9F9F",
"{  c gray63",
"}  c gray64",
"|  c #A5A5A5",
" . c gray65",
".. c #ACACAC",
"X. c #AEAEAE",
"o. c #AFAFAF",
"O. c gray70",
"+. c #B4B4B4",
"@. c #B6B6B6",
"#. c #B7B7B7",
"$. c gray72",
"%. c #BBBBBB",
"&. c gray",
"*. c #C0C0C0",
"=. c #C1C1C1",
"-. c #C3C3C3",
";. c gray77",
":. c #C5C5C5",
">. c #C6C6C6",
",. c gray78",
"<. c #C8C8C8",
"1. c gray79",
"2. c #CACACA",
"3. c #CDCDCD",
"4. c #CECECE",
"5. c gray81",
"6. c #D0D0D0",
"7. c gray82",
"8. c LightGray",
"9. c gray83",
"0. c #D5D5D5",
"q. c gray84",
"w. c #D7D7D7",
"e. c #D8D8D8",
"r. c gray85",
"t. c #DADADA",
"y. c gainsboro",
"u. c #DDDDDD",
"i. c gray87",
"p. c #DFDFDF",
"a. c gray88",
"s. c #E1E1E1",
"d. c #E2E2E2",
"f. c #E4E4E4",
"g. c gray90",
"h. c #E6E6E6",
"j. c #E7E7E7",
"k. c gray91",
"l. c gray100",
"z. c None",
/* pixels */
"z.z.z.z.z.z.z.z.z.z.z.z.z.z.z.z.z.z.z.z.z.z.z.z.z.z.z.z.z.z.z.z.",
"z.z.z.z.z.z.z.z.z.z.z.z.z.z.z.z.z.z.z.z.z.z.z.z.z.z.z.z.z.z.z.z.",
"z.z.z.z.z.z.z.z.z.z.z.z.z.z.z.z.z.z.z.z.z.z.z.z.z.z.z.z.z.z.z.z.",
"z.z.z.z.z.z.z.z.z.z.z.z.z.z.z.z.z.z.z.z.z.z.z.z.z.z.z.z.z.z.z.z.",
"z.z.z.z.z.z.z.z.z.z.z.z.z.z.z.z.z.z.z.z.z.z.z.z.z.z.z.z.z.z.z.z.",
"z.z.                                    z.z.z.z.z.z.z.z.z.z.z.z.",
"z.z.  4 4 4 4 4 4 4 4 4 4 4 4 4 4 4 4     z.z.z.z.z.z.z.z.z.z.z.",
"z.z.  M h.h.k.h.k.k.h.p.h.h.h.u.p.u.r.r.    z.z.z.z.z.z.z.z.z.z.",
"z.z.  b u.p.p.u.p.p.u.u.u.r.r.q.q.q.8.8.8.    z.z.z.z.z.z.z.z.z.",
"z.z.  c q.q.r.q.q.q.q.q.8.8.8.2.2.:.=.:.=.%.    z.z.z.z.z.z.z.z.",
"z.z.  c 2.2.2.2.2.l.:.:.=.:.=.%.%.l.$.@.O.X. .    z.z.z.z.z.z.z.",
"z.z.  h $.$.%.$.l.l.l.$.O.O.O.X.l.l.l.{ { ] ' _     z.z.z.z.z.z.",
"z.z.  s } }  .l.l.l.l.l.{ ] ' l.l.l.l.l.^ ~ Q Q Y     z.z.z.z.z.",
"z.z.  i / ) ) ) l.l.l.l.l.~ l.l.l.l.l.I P L H J H F     z.z.z.z.",
"z.z.  t I Y Y Y I l.l.l.l.l.l.l.l.l.H D A A Z C V M b     z.z.z.",
"z.z.  7 F F H F F F l.l.l.l.l.l.l.V M b b c l l h s s i     z.z.",
"z.z.  4 M M M V M M b l.l.l.l.l.h s s s a i i y t t t 7 7     z.",
"z.z.  , s h s a s s l.l.l.l.l.l.l.t t 7 7 7 7 4 4 , , ,     z.z.",
"z.z.  % t t t t t l.l.l.l.l.l.l.l.l.4 , , , = = = = %     z.z.z.",
"z.z.  O 4 4 4 4 l.l.l.l.l.= l.l.l.l.l.% O % % % O O     z.z.z.z.",
"z.z.  O = = , l.l.l.l.l.% % O l.l.l.l.l.O   O O       z.z.z.z.z.",
"z.z.    O % % O l.l.l.  O O O O l.l.l.  O           z.z.z.z.z.z.",
"z.z.    O O O O O l.    O         l.              z.z.z.z.z.z.z.",
"z.z.      O         O                           z.z.z.z.z.z.z.z.",
"z.z.                                          z.z.z.z.z.z.z.z.z.",
"z.z.                                        z.z.z.z.z.z.z.z.z.z.",
"z.z.                                      z.z.z.z.z.z.z.z.z.z.z.",
"z.z.z.z.z.z.z.z.z.z.z.z.z.z.z.z.z.z.z.z.z.z.z.z.z.z.z.z.z.z.z.z.",
"z.z.z.z.z.z.z.z.z.z.z.z.z.z.z.z.z.z.z.z.z.z.z.z.z.z.z.z.z.z.z.z.",
"z.z.z.z.z.z.z.z.z.z.z.z.z.z.z.z.z.z.z.z.z.z.z.z.z.z.z.z.z.z.z.z.",
"z.z.z.z.z.z.z.z.z.z.z.z.z.z.z.z.z.z.z.z.z.z.z.z.z.z.z.z.z.z.z.z.",
"z.z.z.z.z.z.z.z.z.z.z.z.z.z.z.z.z.z.z.z.z.z.z.z.z.z.z.z.z.z.z.z."
};
